<mxfile host="Electron" modified="2024-01-19T15:27:14.796Z" agent="Mozilla/5.0 (Windows NT 10.0; Win64; x64) AppleWebKit/537.36 (KHTML, like Gecko) draw.io/22.1.2 Chrome/114.0.5735.289 Electron/25.9.4 Safari/537.36" etag="wB2RPJjnvpa-4pQBFBTC" version="22.1.2" type="device">
  <diagram name="Страница — 1" id="GxQppBFaJ65_H9LnIA1e">
    <mxGraphModel dx="1383" dy="1935" grid="1" gridSize="10" guides="1" tooltips="1" connect="1" arrows="1" fold="1" page="1" pageScale="1" pageWidth="827" pageHeight="1169" math="0" shadow="0">
      <root>
        <mxCell id="0" />
        <mxCell id="1" parent="0" />
        <mxCell id="GRfb_qj0AlOyXe_T9NQG-29" style="edgeStyle=orthogonalEdgeStyle;rounded=0;orthogonalLoop=1;jettySize=auto;html=1;entryX=0;entryY=0.5;entryDx=0;entryDy=0;" parent="1" source="GRfb_qj0AlOyXe_T9NQG-5" edge="1">
          <mxGeometry relative="1" as="geometry">
            <mxPoint x="579.9999999999995" y="-45" as="targetPoint" />
          </mxGeometry>
        </mxCell>
        <mxCell id="tXmCkiRb7wHD3BzwvMd0-32" value="Orders" style="swimlane;fontStyle=0;childLayout=stackLayout;horizontal=1;startSize=30;horizontalStack=0;resizeParent=1;resizeParentMax=0;resizeLast=0;collapsible=1;marginBottom=0;whiteSpace=wrap;html=1;" vertex="1" parent="1">
          <mxGeometry x="230" y="-230" width="140" height="120" as="geometry" />
        </mxCell>
        <mxCell id="tXmCkiRb7wHD3BzwvMd0-33" value="Integer id" style="text;strokeColor=none;fillColor=none;align=left;verticalAlign=middle;spacingLeft=4;spacingRight=4;overflow=hidden;points=[[0,0.5],[1,0.5]];portConstraint=eastwest;rotatable=0;whiteSpace=wrap;html=1;" vertex="1" parent="tXmCkiRb7wHD3BzwvMd0-32">
          <mxGeometry y="30" width="140" height="30" as="geometry" />
        </mxCell>
        <mxCell id="tXmCkiRb7wHD3BzwvMd0-34" value="String street" style="text;strokeColor=none;fillColor=none;align=left;verticalAlign=middle;spacingLeft=4;spacingRight=4;overflow=hidden;points=[[0,0.5],[1,0.5]];portConstraint=eastwest;rotatable=0;whiteSpace=wrap;html=1;" vertex="1" parent="tXmCkiRb7wHD3BzwvMd0-32">
          <mxGeometry y="60" width="140" height="30" as="geometry" />
        </mxCell>
        <mxCell id="tXmCkiRb7wHD3BzwvMd0-73" value="Integer order_item_id" style="text;strokeColor=none;fillColor=none;align=left;verticalAlign=middle;spacingLeft=4;spacingRight=4;overflow=hidden;points=[[0,0.5],[1,0.5]];portConstraint=eastwest;rotatable=0;whiteSpace=wrap;html=1;" vertex="1" parent="tXmCkiRb7wHD3BzwvMd0-32">
          <mxGeometry y="90" width="140" height="30" as="geometry" />
        </mxCell>
        <mxCell id="tXmCkiRb7wHD3BzwvMd0-35" value="Clients" style="swimlane;fontStyle=0;childLayout=stackLayout;horizontal=1;startSize=30;horizontalStack=0;resizeParent=1;resizeParentMax=0;resizeLast=0;collapsible=1;marginBottom=0;whiteSpace=wrap;html=1;" vertex="1" parent="1">
          <mxGeometry x="10" y="-230" width="140" height="150" as="geometry" />
        </mxCell>
        <mxCell id="tXmCkiRb7wHD3BzwvMd0-36" value="Integer id" style="text;strokeColor=none;fillColor=none;align=left;verticalAlign=middle;spacingLeft=4;spacingRight=4;overflow=hidden;points=[[0,0.5],[1,0.5]];portConstraint=eastwest;rotatable=0;whiteSpace=wrap;html=1;" vertex="1" parent="tXmCkiRb7wHD3BzwvMd0-35">
          <mxGeometry y="30" width="140" height="30" as="geometry" />
        </mxCell>
        <mxCell id="tXmCkiRb7wHD3BzwvMd0-37" value="String name" style="text;strokeColor=none;fillColor=none;align=left;verticalAlign=middle;spacingLeft=4;spacingRight=4;overflow=hidden;points=[[0,0.5],[1,0.5]];portConstraint=eastwest;rotatable=0;whiteSpace=wrap;html=1;" vertex="1" parent="tXmCkiRb7wHD3BzwvMd0-35">
          <mxGeometry y="60" width="140" height="30" as="geometry" />
        </mxCell>
        <mxCell id="tXmCkiRb7wHD3BzwvMd0-38" value="Integer cart_id" style="text;strokeColor=none;fillColor=none;align=left;verticalAlign=middle;spacingLeft=4;spacingRight=4;overflow=hidden;points=[[0,0.5],[1,0.5]];portConstraint=eastwest;rotatable=0;whiteSpace=wrap;html=1;" vertex="1" parent="tXmCkiRb7wHD3BzwvMd0-35">
          <mxGeometry y="90" width="140" height="30" as="geometry" />
        </mxCell>
        <mxCell id="tXmCkiRb7wHD3BzwvMd0-39" value="Integer order_id" style="text;strokeColor=none;fillColor=none;align=left;verticalAlign=middle;spacingLeft=4;spacingRight=4;overflow=hidden;points=[[0,0.5],[1,0.5]];portConstraint=eastwest;rotatable=0;whiteSpace=wrap;html=1;" vertex="1" parent="tXmCkiRb7wHD3BzwvMd0-35">
          <mxGeometry y="120" width="140" height="30" as="geometry" />
        </mxCell>
        <mxCell id="tXmCkiRb7wHD3BzwvMd0-40" value="Products" style="swimlane;fontStyle=0;childLayout=stackLayout;horizontal=1;startSize=30;horizontalStack=0;resizeParent=1;resizeParentMax=0;resizeLast=0;collapsible=1;marginBottom=0;whiteSpace=wrap;html=1;" vertex="1" parent="1">
          <mxGeometry x="600" y="-60" width="140" height="90" as="geometry" />
        </mxCell>
        <mxCell id="tXmCkiRb7wHD3BzwvMd0-41" value="Integer id" style="text;strokeColor=none;fillColor=none;align=left;verticalAlign=middle;spacingLeft=4;spacingRight=4;overflow=hidden;points=[[0,0.5],[1,0.5]];portConstraint=eastwest;rotatable=0;whiteSpace=wrap;html=1;" vertex="1" parent="tXmCkiRb7wHD3BzwvMd0-40">
          <mxGeometry y="30" width="140" height="30" as="geometry" />
        </mxCell>
        <mxCell id="tXmCkiRb7wHD3BzwvMd0-42" value="String name" style="text;strokeColor=none;fillColor=none;align=left;verticalAlign=middle;spacingLeft=4;spacingRight=4;overflow=hidden;points=[[0,0.5],[1,0.5]];portConstraint=eastwest;rotatable=0;whiteSpace=wrap;html=1;" vertex="1" parent="tXmCkiRb7wHD3BzwvMd0-40">
          <mxGeometry y="60" width="140" height="30" as="geometry" />
        </mxCell>
        <mxCell id="tXmCkiRb7wHD3BzwvMd0-43" value="Cart" style="swimlane;fontStyle=0;childLayout=stackLayout;horizontal=1;startSize=30;horizontalStack=0;resizeParent=1;resizeParentMax=0;resizeLast=0;collapsible=1;marginBottom=0;whiteSpace=wrap;html=1;" vertex="1" parent="1">
          <mxGeometry x="-30" y="285" width="140" height="90" as="geometry" />
        </mxCell>
        <mxCell id="tXmCkiRb7wHD3BzwvMd0-44" value="Integer id" style="text;strokeColor=none;fillColor=none;align=left;verticalAlign=middle;spacingLeft=4;spacingRight=4;overflow=hidden;points=[[0,0.5],[1,0.5]];portConstraint=eastwest;rotatable=0;whiteSpace=wrap;html=1;" vertex="1" parent="tXmCkiRb7wHD3BzwvMd0-43">
          <mxGeometry y="30" width="140" height="30" as="geometry" />
        </mxCell>
        <mxCell id="tXmCkiRb7wHD3BzwvMd0-45" value="Integer cart_element_id" style="text;strokeColor=none;fillColor=none;align=left;verticalAlign=middle;spacingLeft=4;spacingRight=4;overflow=hidden;points=[[0,0.5],[1,0.5]];portConstraint=eastwest;rotatable=0;whiteSpace=wrap;html=1;" vertex="1" parent="tXmCkiRb7wHD3BzwvMd0-43">
          <mxGeometry y="60" width="140" height="30" as="geometry" />
        </mxCell>
        <mxCell id="tXmCkiRb7wHD3BzwvMd0-46" value="Cart_element" style="swimlane;fontStyle=0;childLayout=stackLayout;horizontal=1;startSize=30;horizontalStack=0;resizeParent=1;resizeParentMax=0;resizeLast=0;collapsible=1;marginBottom=0;whiteSpace=wrap;html=1;" vertex="1" parent="1">
          <mxGeometry x="780" y="285" width="140" height="150" as="geometry" />
        </mxCell>
        <mxCell id="tXmCkiRb7wHD3BzwvMd0-47" value="Integer id" style="text;strokeColor=none;fillColor=none;align=left;verticalAlign=middle;spacingLeft=4;spacingRight=4;overflow=hidden;points=[[0,0.5],[1,0.5]];portConstraint=eastwest;rotatable=0;whiteSpace=wrap;html=1;" vertex="1" parent="tXmCkiRb7wHD3BzwvMd0-46">
          <mxGeometry y="30" width="140" height="30" as="geometry" />
        </mxCell>
        <mxCell id="tXmCkiRb7wHD3BzwvMd0-48" value="Integer amount" style="text;strokeColor=none;fillColor=none;align=left;verticalAlign=middle;spacingLeft=4;spacingRight=4;overflow=hidden;points=[[0,0.5],[1,0.5]];portConstraint=eastwest;rotatable=0;whiteSpace=wrap;html=1;" vertex="1" parent="tXmCkiRb7wHD3BzwvMd0-46">
          <mxGeometry y="60" width="140" height="30" as="geometry" />
        </mxCell>
        <mxCell id="tXmCkiRb7wHD3BzwvMd0-49" value="BigDecimal price" style="text;strokeColor=none;fillColor=none;align=left;verticalAlign=middle;spacingLeft=4;spacingRight=4;overflow=hidden;points=[[0,0.5],[1,0.5]];portConstraint=eastwest;rotatable=0;whiteSpace=wrap;html=1;" vertex="1" parent="tXmCkiRb7wHD3BzwvMd0-46">
          <mxGeometry y="90" width="140" height="30" as="geometry" />
        </mxCell>
        <mxCell id="tXmCkiRb7wHD3BzwvMd0-50" value="Integer product_id" style="text;strokeColor=none;fillColor=none;align=left;verticalAlign=middle;spacingLeft=4;spacingRight=4;overflow=hidden;points=[[0,0.5],[1,0.5]];portConstraint=eastwest;rotatable=0;whiteSpace=wrap;html=1;" vertex="1" parent="tXmCkiRb7wHD3BzwvMd0-46">
          <mxGeometry y="120" width="140" height="30" as="geometry" />
        </mxCell>
        <mxCell id="tXmCkiRb7wHD3BzwvMd0-51" style="edgeStyle=orthogonalEdgeStyle;rounded=0;orthogonalLoop=1;jettySize=auto;html=1;entryX=0;entryY=0.5;entryDx=0;entryDy=0;" edge="1" parent="1" source="tXmCkiRb7wHD3BzwvMd0-38" target="tXmCkiRb7wHD3BzwvMd0-44">
          <mxGeometry relative="1" as="geometry" />
        </mxCell>
        <mxCell id="tXmCkiRb7wHD3BzwvMd0-52" value="one &lt;br&gt;to one" style="text;html=1;align=center;verticalAlign=middle;resizable=0;points=[];autosize=1;strokeColor=none;fillColor=none;" vertex="1" parent="1">
          <mxGeometry x="-100" y="110" width="60" height="40" as="geometry" />
        </mxCell>
        <mxCell id="tXmCkiRb7wHD3BzwvMd0-53" style="edgeStyle=orthogonalEdgeStyle;rounded=0;orthogonalLoop=1;jettySize=auto;html=1;entryX=0;entryY=0.5;entryDx=0;entryDy=0;" edge="1" parent="1" source="tXmCkiRb7wHD3BzwvMd0-45" target="tXmCkiRb7wHD3BzwvMd0-47">
          <mxGeometry relative="1" as="geometry" />
        </mxCell>
        <mxCell id="tXmCkiRb7wHD3BzwvMd0-54" value="one to &lt;br&gt;many" style="text;html=1;align=center;verticalAlign=middle;resizable=0;points=[];autosize=1;strokeColor=none;fillColor=none;" vertex="1" parent="1">
          <mxGeometry x="170" y="320" width="60" height="40" as="geometry" />
        </mxCell>
        <mxCell id="tXmCkiRb7wHD3BzwvMd0-55" value="order_item" style="swimlane;fontStyle=0;childLayout=stackLayout;horizontal=1;startSize=30;horizontalStack=0;resizeParent=1;resizeParentMax=0;resizeLast=0;collapsible=1;marginBottom=0;whiteSpace=wrap;html=1;" vertex="1" parent="1">
          <mxGeometry x="420" y="-277" width="140" height="150" as="geometry" />
        </mxCell>
        <mxCell id="tXmCkiRb7wHD3BzwvMd0-72" value="Integer id" style="text;strokeColor=none;fillColor=none;align=left;verticalAlign=middle;spacingLeft=4;spacingRight=4;overflow=hidden;points=[[0,0.5],[1,0.5]];portConstraint=eastwest;rotatable=0;whiteSpace=wrap;html=1;" vertex="1" parent="tXmCkiRb7wHD3BzwvMd0-55">
          <mxGeometry y="30" width="140" height="30" as="geometry" />
        </mxCell>
        <mxCell id="tXmCkiRb7wHD3BzwvMd0-58" value="Integer amount" style="text;strokeColor=none;fillColor=none;align=left;verticalAlign=middle;spacingLeft=4;spacingRight=4;overflow=hidden;points=[[0,0.5],[1,0.5]];portConstraint=eastwest;rotatable=0;whiteSpace=wrap;html=1;" vertex="1" parent="tXmCkiRb7wHD3BzwvMd0-55">
          <mxGeometry y="60" width="140" height="30" as="geometry" />
        </mxCell>
        <mxCell id="tXmCkiRb7wHD3BzwvMd0-59" value="BigDecimal price" style="text;strokeColor=none;fillColor=none;align=left;verticalAlign=middle;spacingLeft=4;spacingRight=4;overflow=hidden;points=[[0,0.5],[1,0.5]];portConstraint=eastwest;rotatable=0;whiteSpace=wrap;html=1;" vertex="1" parent="tXmCkiRb7wHD3BzwvMd0-55">
          <mxGeometry y="90" width="140" height="30" as="geometry" />
        </mxCell>
        <mxCell id="tXmCkiRb7wHD3BzwvMd0-82" value="Integer product_id" style="text;strokeColor=none;fillColor=none;align=left;verticalAlign=middle;spacingLeft=4;spacingRight=4;overflow=hidden;points=[[0,0.5],[1,0.5]];portConstraint=eastwest;rotatable=0;whiteSpace=wrap;html=1;" vertex="1" parent="tXmCkiRb7wHD3BzwvMd0-55">
          <mxGeometry y="120" width="140" height="30" as="geometry" />
        </mxCell>
        <mxCell id="tXmCkiRb7wHD3BzwvMd0-61" style="edgeStyle=orthogonalEdgeStyle;rounded=0;orthogonalLoop=1;jettySize=auto;html=1;entryX=1;entryY=0.5;entryDx=0;entryDy=0;" edge="1" parent="1" source="tXmCkiRb7wHD3BzwvMd0-50" target="tXmCkiRb7wHD3BzwvMd0-41">
          <mxGeometry relative="1" as="geometry" />
        </mxCell>
        <mxCell id="tXmCkiRb7wHD3BzwvMd0-62" value="one &lt;br&gt;to many" style="text;html=1;align=center;verticalAlign=middle;resizable=0;points=[];autosize=1;strokeColor=none;fillColor=none;" vertex="1" parent="1">
          <mxGeometry x="690" y="160" width="70" height="40" as="geometry" />
        </mxCell>
        <mxCell id="tXmCkiRb7wHD3BzwvMd0-63" style="edgeStyle=orthogonalEdgeStyle;rounded=0;orthogonalLoop=1;jettySize=auto;html=1;entryX=0;entryY=0.5;entryDx=0;entryDy=0;" edge="1" parent="1" source="tXmCkiRb7wHD3BzwvMd0-39" target="tXmCkiRb7wHD3BzwvMd0-33">
          <mxGeometry relative="1" as="geometry" />
        </mxCell>
        <mxCell id="tXmCkiRb7wHD3BzwvMd0-64" value="one &lt;br&gt;to many" style="text;html=1;align=center;verticalAlign=middle;resizable=0;points=[];autosize=1;strokeColor=none;fillColor=none;" vertex="1" parent="1">
          <mxGeometry x="155" y="-237" width="70" height="40" as="geometry" />
        </mxCell>
        <mxCell id="tXmCkiRb7wHD3BzwvMd0-74" style="edgeStyle=orthogonalEdgeStyle;rounded=0;orthogonalLoop=1;jettySize=auto;html=1;entryX=0;entryY=0.5;entryDx=0;entryDy=0;" edge="1" parent="1" source="tXmCkiRb7wHD3BzwvMd0-73" target="tXmCkiRb7wHD3BzwvMd0-72">
          <mxGeometry relative="1" as="geometry" />
        </mxCell>
        <mxCell id="tXmCkiRb7wHD3BzwvMd0-75" value="one&lt;br&gt;to many" style="text;html=1;align=center;verticalAlign=middle;resizable=0;points=[];autosize=1;strokeColor=none;fillColor=none;" vertex="1" parent="1">
          <mxGeometry x="355" y="-277" width="70" height="40" as="geometry" />
        </mxCell>
        <mxCell id="tXmCkiRb7wHD3BzwvMd0-81" value="one &lt;br&gt;to many" style="text;html=1;align=center;verticalAlign=middle;resizable=0;points=[];autosize=1;strokeColor=none;fillColor=none;" vertex="1" parent="1">
          <mxGeometry x="520" y="-80" width="70" height="40" as="geometry" />
        </mxCell>
        <mxCell id="tXmCkiRb7wHD3BzwvMd0-83" style="edgeStyle=orthogonalEdgeStyle;rounded=0;orthogonalLoop=1;jettySize=auto;html=1;entryX=0;entryY=0.5;entryDx=0;entryDy=0;" edge="1" parent="1" source="tXmCkiRb7wHD3BzwvMd0-82" target="tXmCkiRb7wHD3BzwvMd0-41">
          <mxGeometry relative="1" as="geometry" />
        </mxCell>
      </root>
    </mxGraphModel>
  </diagram>
</mxfile>
